<svg width="88" height="61" viewBox="0 0 88 61" fill="none" xmlns="http://www.w3.org/2000/svg">
<path d="M42.6246 15.0762V28.2061H37.7178V23.8291L35.2655 25.2005L32.811 23.8291V28.2061H27.9031V15.0762L35.2589 19.1883L42.6246 15.0762Z" fill="#E5E6A2"/>
<path d="M52.5855 24.3922L50.132 20.0153L47.3634 15.0762L44.6169 19.9765V28.2071H44.9123L45.4062 27.3202L45.8502 26.5375L46.3143 25.7071L47.369 23.8224L47.6842 24.3867L48.4236 25.7026L49.3283 27.3157L49.8234 28.2027H54.7247L52.5855 24.3922Z" fill="#E5E6A2"/>
<path d="M59.1654 15.0766L56.7143 19.4534L54.2586 15.0766H49.353L49.6183 15.5488L52.3936 20.4833L54.8459 24.8602L56.7232 28.2071H59.1654V23.8302L64.0722 15.0721L59.1654 15.0766Z" fill="#E5E6A2"/>
<path d="M49.6716 25.8138H45.0557V27.4266H49.6716V25.8138Z" fill="#E5E6A2"/>
<path d="M42.6246 39.4342C42.6246 41.5827 40.684 43.3243 38.295 43.3243H27.9075V30.1949H37.9542C40.1578 30.1949 41.9507 31.7991 41.9507 33.778C41.9457 34.2496 41.8424 34.715 41.6472 35.1445C41.4521 35.574 41.1694 35.9581 40.8172 36.2724C41.9085 36.9797 42.6246 38.1304 42.6246 39.4342ZM32.8098 35.237H36.1269C36.7386 35.237 37.237 34.7935 37.237 34.2392C37.237 33.6849 36.7408 33.2414 36.1269 33.2414H32.8098V35.237ZM37.6944 39.2801C37.6944 38.7258 37.1993 38.2823 36.5843 38.2823H32.8098V40.2701H36.5843C37.2037 40.2734 37.7 39.8289 37.7 39.2801H37.6944Z" fill="#747C2F"/>
<path d="M59.1653 33.9687V30.1993H39.9834C42.1593 30.2271 43.9133 31.8202 43.9133 33.7814C43.9084 34.2528 43.8051 34.7181 43.61 35.1475C43.4148 35.5768 43.1321 35.9607 42.7799 36.2747C43.8789 36.9798 44.596 38.1317 44.596 39.4365C44.596 41.5851 42.6555 43.3268 40.2665 43.3268H59.1698V39.5574H47.3636V33.9676L59.1653 33.9687Z" fill="#747C2F"/>
<path d="M59.1699 35.9575H45.8428V37.5708H59.1699V35.9575Z" fill="#747C2F"/>
<path d="M87.981 18.06H85.9917V49.2947H87.981V18.06Z" fill="#747C2F"/>
<path d="M88 55.9696C87.9997 57.3015 87.4697 58.5787 86.5267 59.5205C85.5837 60.4622 84.3048 60.9914 82.9711 60.9917H5.02887C4.36846 60.9917 3.71459 60.8618 3.10446 60.6094C2.49433 60.3571 1.93985 59.9871 1.47287 59.5208C1.0059 59.0544 0.635525 58.5008 0.3828 57.8915C0.130074 57.2822 0 56.6291 0 55.9696V5.02435C0 3.6924 0.529774 2.415 1.47287 1.47317C2.41597 0.531336 3.69512 0.00221944 5.02887 0.00221944H33.2128C33.3037 0.00221932 33.3938 0.0201383 33.4778 0.0549176C33.5618 0.0896969 33.6381 0.140666 33.7023 0.204919C33.7665 0.269173 33.8174 0.345428 33.8521 0.429354C33.8868 0.513279 33.9046 0.603214 33.9045 0.694008V1.98448V3.27714C33.9045 3.46061 33.9774 3.63657 34.1073 3.76631C34.2372 3.89605 34.4135 3.96893 34.5972 3.96893H53.3994C53.4903 3.96893 53.5804 3.95104 53.6644 3.91626C53.7483 3.88148 53.8246 3.83048 53.8889 3.76623C53.9531 3.70198 54.004 3.62572 54.0387 3.5418C54.0734 3.45787 54.0912 3.36794 54.0911 3.27714V0.691789C54.0911 0.508315 54.164 0.332355 54.2939 0.202619C54.4238 0.0728829 54.6001 0 54.7838 0H82.9578C84.2915 0 85.5706 0.529116 86.5137 1.47095C87.4568 2.41278 87.9867 3.69018 87.9867 5.02214V10.3569H85.9973V5.67403C85.9973 4.69609 85.6083 3.75818 84.9158 3.06667C84.2234 2.37516 83.2843 1.9867 82.3051 1.9867H56.0827V3.96893C56.0827 4.49583 55.8731 5.00115 55.5 5.37373C55.1269 5.7463 54.6208 5.9556 54.0932 5.9556H33.9067C33.379 5.9556 32.8731 5.7463 32.5 5.37373C32.1269 5.00115 31.9173 4.49583 31.9173 3.96893V1.9867H5.68161C5.19673 1.9867 4.71666 2.08207 4.26869 2.26738C3.82072 2.45268 3.41361 2.72427 3.07074 3.06667C2.72788 3.40907 2.45601 3.81556 2.27045 4.26292C2.0849 4.71029 1.98934 5.1898 1.98934 5.67403V55.3155C1.98934 55.7997 2.0849 56.2792 2.27045 56.7266C2.45601 57.174 2.72788 57.5804 3.07074 57.9228C3.41361 58.2652 3.82072 58.5368 4.26869 58.7221C4.71666 58.9074 5.19673 59.0028 5.68161 59.0028H82.3183C82.8032 59.003 83.2835 58.9077 83.7315 58.7224C84.1796 58.5372 84.5866 58.2656 84.9295 57.9232C85.2724 57.5807 85.5444 57.1742 85.7299 56.7268C85.9154 56.2793 86.0108 55.7998 86.0107 55.3155L85.9973 53.2667H13.9321V51.2812H87.9867L88 55.9696Z" fill="#747C2F"/>
</svg>
