<svg width="1530" height="299" viewBox="0 0 1530 299" fill="none" xmlns="http://www.w3.org/2000/svg">
<path d="M1334 0V107.873H1293.34V71.9123L1272.98 83.1797L1252.64 71.9123V107.873H1212V0L1272.98 33.7838L1334 0Z" fill="#E5E6A2"/>
<path d="M1415.36 76.5395L1395.23 40.5788L1372.54 0L1350 40.26V107.873H1352.42L1356.48 100.586L1360.12 94.1464L1363.93 87.3332L1372.59 71.8486L1375.17 76.4849L1381.24 87.2968L1388.67 100.55L1392.73 107.837H1433L1415.36 76.5395Z" fill="#E5E6A2"/>
<path d="M1469.69 0.0363898L1449.54 35.9729L1429.35 0.0363898H1389L1391.18 3.91404L1413.96 44.4654L1434.13 80.4019L1449.56 107.873H1469.65V71.9093L1510 0L1469.69 0.0363898Z" fill="#E5E6A2"/>
<path d="M1391 88.8955H1354V101.88H1391V88.8955Z" fill="#E5E6A2"/>
<path d="M1334 201.467C1334 219.283 1317.92 233.725 1298.12 233.725H1212V124.853H1295.26C1313.52 124.853 1328.38 138.155 1328.38 154.564C1328.34 158.476 1327.48 162.335 1325.86 165.896C1324.24 169.458 1321.9 172.643 1318.98 175.248C1328.05 181.095 1334 190.656 1334 201.467ZM1252.66 166.644H1280.15C1285.22 166.644 1289.35 162.967 1289.35 158.37C1289.35 153.774 1285.24 150.096 1280.15 150.096H1252.66V166.644ZM1293.14 200.161C1293.14 195.565 1289.04 191.888 1283.94 191.888H1252.67V208.371H1284.02C1289.06 208.426 1293.22 204.739 1293.22 200.18L1293.14 200.161Z" fill="#747C2F"/>
<path d="M1469.96 156.114V124.853H1312C1329.92 125.082 1344.36 138.286 1344.36 154.56C1344.32 158.47 1343.47 162.329 1341.86 165.889C1340.26 169.45 1337.93 172.634 1335.03 175.238C1344.08 181.086 1349.98 190.639 1349.98 201.461C1349.98 219.28 1334 233.725 1314.33 233.725H1470V202.473H1372.74V156.141L1469.96 156.114Z" fill="#747C2F"/>
<path d="M1470 171.798H1359V185.781H1470V171.798Z" fill="#747C2F"/>
<path d="M1530 249.748V299L0 298.999V59L1151.24 59.0011V68.0011L8 68V292L1522 292.001V260H1170.46V249.748H1530Z" fill="#747C2F"/>
<path d="M45 154.557L72.03 202.922L99.145 154.557H81.125L72.03 170.707L63.02 154.557H45Z" fill="#E5E6A2"/>
<path d="M156.752 154.557H138.732L129.637 170.707L120.627 154.557H102.607L120.627 186.857V202.922H138.732V186.857L156.752 154.557Z" fill="#E5E6A2"/>
<path d="M181.896 202.837H199.916L172.801 154.387L145.771 202.837H163.791L167.276 196.717L178.411 202.922V196.717H167.276L172.801 186.687L181.896 202.837Z" fill="#E5E6A2"/>
<path d="M235.057 183.117C233.272 185.412 230.297 186.857 226.812 186.857C221.372 186.857 217.037 183.287 217.037 178.782C217.037 174.277 221.372 170.622 226.812 170.622C230.297 170.622 233.272 172.152 235.057 174.362L251.547 165.607C246.362 158.892 237.182 154.387 226.812 154.387C210.577 154.387 197.402 165.352 197.402 178.782C197.402 192.212 210.577 203.092 226.812 203.092C237.182 203.092 246.362 198.672 251.547 191.957L235.057 183.117Z" fill="#E5E6A2"/>
<path d="M291.135 154.557V170.707H273.03V154.557H255.01V202.922H273.03V186.857H291.135V202.922H309.155V154.557H291.135Z" fill="#E5E6A2"/>
<path d="M330.637 170.707H348.742L334.292 178.782H348.742V170.707H357.752V154.557H312.617V202.922H357.752V186.857H330.637V170.707Z" fill="#E5E6A2"/>
<path d="M404.95 178.697C404.865 178.697 404.865 178.612 404.695 178.612C402.57 177.082 399.85 175.892 396.875 175.042C396.875 175.042 383.87 171.387 383.53 171.217C383.105 171.047 382.765 170.792 382.51 170.537C382.34 170.367 382.255 170.282 382.17 170.112C382.085 170.027 382.085 169.942 382 169.942C381.915 169.687 381.83 169.432 381.83 169.177C381.83 167.817 383.7 166.712 386.08 166.712C388.375 166.712 390.33 167.817 390.33 169.177C390.33 169.772 390.33 170.622 390.33 170.622H410.815C410.9 170.197 410.9 169.687 410.9 169.177C410.9 166.032 409.2 163.057 406.31 160.677C405.8 160.252 405.205 159.742 404.61 159.402C404.525 159.317 404.44 159.317 404.44 159.232C403.845 158.892 403.25 158.467 402.57 158.127C402.485 158.127 402.4 158.127 402.4 158.042C400.955 157.277 399.34 156.682 397.64 156.087H397.555C396.79 155.832 396.025 155.662 395.26 155.407C395.005 155.407 394.75 155.322 394.495 155.322C393.9 155.152 393.22 155.067 392.625 154.897C392.285 154.897 392.03 154.812 391.69 154.812C391.095 154.727 390.415 154.642 389.735 154.557C389.48 154.557 389.225 154.557 388.885 154.472C387.95 154.472 387.015 154.387 386.08 154.387C384.38 154.387 382.68 154.472 381.065 154.727C379.45 154.897 377.92 155.152 376.39 155.577C374.945 155.917 373.5 156.427 372.14 156.937C369.505 157.957 367.21 159.317 365.425 160.932C362.79 163.312 361.26 166.117 361.26 169.177C361.26 169.687 361.26 170.197 361.345 170.622C361.855 173.767 363.98 176.572 367.21 178.782C367.21 178.867 367.295 178.867 367.38 178.952C369.59 180.397 372.225 181.672 375.285 182.522C375.285 182.522 388.29 186.177 388.63 186.347C389.055 186.517 389.31 186.687 389.565 186.942C389.735 187.112 389.905 187.282 389.99 187.452C390.075 187.537 390.075 187.537 390.075 187.622C390.245 187.877 390.33 188.047 390.33 188.302C390.33 189.747 388.375 190.852 386.08 190.852C383.7 190.852 381.83 189.747 381.83 188.302C381.83 187.792 381.83 186.857 381.83 186.857H361.345C361.26 187.367 361.26 187.877 361.26 188.302C361.26 192.127 363.64 195.527 367.55 198.162C367.635 198.162 367.635 198.247 367.72 198.247C368.315 198.672 368.91 199.012 369.505 199.352C369.59 199.437 369.675 199.437 369.76 199.522C371.205 200.202 372.735 200.882 374.435 201.392C374.52 201.392 374.52 201.477 374.605 201.477C375.37 201.647 376.135 201.902 376.9 202.072C377.155 202.157 377.41 202.157 377.58 202.242C378.26 202.412 378.855 202.497 379.535 202.582C379.79 202.667 380.13 202.667 380.385 202.752C381.065 202.837 381.66 202.922 382.34 202.922C382.68 203.007 382.935 203.007 383.19 203.007C384.125 203.092 385.06 203.092 386.08 203.092C399.765 203.092 410.9 196.547 410.9 188.302C410.9 184.647 408.69 181.332 404.95 178.697Z" fill="#E5E6A2"/>
<path d="M432.405 186.857V154.557H414.385V202.922H459.52V186.857H432.405Z" fill="#E5E6A2"/>
<path d="M499.152 202.837H517.172L490.057 154.387L463.027 202.837H481.047L484.532 196.717L495.667 202.922V196.717H484.532L490.057 186.687L499.152 202.837Z" fill="#E5E6A2"/>
<path d="M501.958 154.557L528.988 202.922L556.103 154.557H538.083L528.988 170.707L519.978 154.557H501.958Z" fill="#E5E6A2"/>
<path d="M620.57 154.557H588.95V202.922H606.97V195.187H620.57C632.98 195.187 643.095 186.092 643.095 174.872C643.095 163.652 632.98 154.557 620.57 154.557ZM606.97 170.622H620.57C623.035 170.622 625.075 172.492 625.075 174.702C625.075 176.912 623.035 178.782 620.57 178.782H606.97V170.622Z" fill="#E5E6A2"/>
<path d="M673.588 154.387C658.628 154.387 646.558 165.267 646.558 178.782C646.558 192.212 658.628 203.092 673.588 203.092C688.633 203.092 700.703 192.212 700.703 178.782C700.703 165.267 688.633 154.387 673.588 154.387ZM673.588 186.857C668.658 186.857 664.578 183.202 664.578 178.782C664.578 174.277 668.658 170.622 673.588 170.622C678.603 170.622 682.683 174.277 682.683 178.782C682.683 183.202 678.603 186.857 673.588 186.857Z" fill="#E5E6A2"/>
<path d="M722.185 186.857V154.557H704.165V202.922H749.3V186.857H722.185Z" fill="#E5E6A2"/>
<path d="M794.169 154.557H776.149L767.054 170.707L758.044 154.557H740.024L758.044 186.857V202.922H776.149V186.857L794.169 154.557Z" fill="#E5E6A2"/>
<path d="M819.313 202.837H837.333L810.218 154.387L783.188 202.837H801.208L804.693 196.717L815.828 202.922V196.717H804.693L810.218 186.687L819.313 202.837Z" fill="#E5E6A2"/>
<path d="M888.226 154.557H867.826L858.816 170.707V154.557H840.796V202.922H858.816V186.857L867.826 202.922H888.226L874.626 178.782L888.226 154.557Z" fill="#E5E6A2"/>
<path d="M912.733 154.387C897.773 154.387 885.703 165.267 885.703 178.782C885.703 192.212 897.773 203.092 912.733 203.092C927.778 203.092 939.848 192.212 939.848 178.782C939.848 165.267 927.778 154.387 912.733 154.387ZM912.733 186.857C907.803 186.857 903.723 183.202 903.723 178.782C903.723 174.277 907.803 170.622 912.733 170.622C917.748 170.622 921.828 174.277 921.828 178.782C921.828 183.202 917.748 186.857 912.733 186.857Z" fill="#E5E6A2"/>
<path d="M937.334 154.557L964.364 202.922L991.479 154.557H973.459L964.364 170.707L955.354 154.557H937.334Z" fill="#E5E6A2"/>
</svg>
