<svg width="620" height="536" viewBox="0 0 620 536" fill="none" xmlns="http://www.w3.org/2000/svg">
<path d="M523.821 64.3522V120.413H502.876V101.726L492.403 107.581L481.93 101.726V120.413H460.985V64.357L492.384 81.9125L523.821 64.3522Z" fill="#E5E6A2"/>
<path d="M566.333 104.126L555.86 85.4443L544.013 64.3578L532.318 85.2786V120.418H533.579L535.687 116.631L537.559 113.285L539.535 109.745L544.037 101.698L545.388 104.112L548.544 109.73L552.401 116.617L554.519 120.404H575.465L566.333 104.126Z" fill="#E5E6A2"/>
<path d="M594.429 64.3573L583.966 83.0394L573.484 64.3573H552.543L553.676 66.3737L565.523 87.4602L575.977 106.104L583.985 120.394H594.439V101.707L615.384 64.3148L594.429 64.3573Z" fill="#E5E6A2"/>
<path d="M553.894 110.194H534.19V117.081H553.894V110.194Z" fill="#E5E6A2"/>
<path d="M173.255 64.3902V120.45H152.309V101.763L141.841 107.618L131.364 101.763V120.45H110.414V64.3949L141.808 81.9503L173.255 64.3902Z" fill="#E5E6A2"/>
<path d="M215.762 104.167L205.289 85.4807L193.471 64.3943L181.747 85.3151V120.45H183.007L185.116 116.663L187.012 113.317L188.993 109.776L193.494 101.73L194.84 104.144L197.996 109.762L201.858 116.649L203.977 120.435H224.908L215.762 104.167Z" fill="#E5E6A2"/>
<path d="M243.863 64.3948L233.405 83.0815L222.922 64.3948H201.977L203.109 66.4112L214.956 87.4976L225.429 106.184L233.438 120.469H243.863V101.763L264.808 64.3712L243.863 64.3948Z" fill="#E5E6A2"/>
<path d="M203.323 110.231H183.619V117.118H203.323V110.231Z" fill="#E5E6A2"/>
<path d="M523.821 168.35C523.821 177.519 515.538 184.954 505.34 184.954H460.985V128.899H503.871C513.278 128.899 520.931 135.748 520.931 144.197C520.907 146.214 520.463 148.204 519.626 150.039C518.789 151.874 517.577 153.515 516.069 154.856C520.755 157.862 523.821 162.779 523.821 168.35ZM481.926 150.426H496.085C498.696 150.426 500.824 148.533 500.824 146.166C500.824 143.799 498.706 141.906 496.085 141.906H481.926V150.426ZM502.776 167.688C502.776 165.345 500.663 163.428 498.038 163.428H481.93V171.919H498.066C500.672 171.934 502.791 170.031 502.791 167.688H502.776Z" fill="#747C2F"/>
<path d="M594.439 145.011V128.919H512.557C521.845 129.032 529.333 135.834 529.333 144.207C529.311 146.221 528.869 148.209 528.034 150.043C527.2 151.877 525.991 153.516 524.485 154.856C529.176 157.871 532.238 162.789 532.238 168.36C532.238 177.528 523.954 184.969 513.756 184.969H594.448V168.876H544.047V145.011H594.439Z" fill="#747C2F"/>
<path d="M594.439 153.507H537.55V160.394H594.439V153.507Z" fill="#747C2F"/>
<path d="M173.255 168.388C173.255 177.561 164.972 184.997 154.774 184.997H110.433V128.941H153.319C162.725 128.941 170.379 135.786 170.379 144.239C170.357 146.253 169.916 148.24 169.083 150.073C168.25 151.907 167.043 153.547 165.54 154.889C170.184 157.899 173.255 162.817 173.255 168.388ZM131.359 150.463H145.519C148.13 150.463 150.258 148.57 150.258 146.203C150.258 143.837 148.139 141.943 145.519 141.943H131.359V150.463ZM152.21 167.725C152.21 165.359 150.097 163.465 147.471 163.465H131.336V171.952H147.471C150.101 171.971 152.22 170.068 152.22 167.725H152.21Z" fill="#747C2F"/>
<path d="M243.863 145.049V128.956H161.981C171.269 129.074 178.757 135.871 178.757 144.244C178.736 146.258 178.295 148.245 177.462 150.079C176.629 151.913 175.422 153.553 173.918 154.894C178.61 157.904 181.676 162.822 181.676 168.393C181.676 177.561 173.388 185.002 163.194 185.002H243.887V168.909H193.49V145.049H243.863Z" fill="#747C2F"/>
<path d="M243.868 153.545H186.979V160.432H243.868V153.545Z" fill="#747C2F"/>
<path fill-rule="evenodd" clip-rule="evenodd" d="M613.673 529.053C617.699 525.032 619.961 519.579 619.962 513.893L619.896 493.881H594.349V502.363H611.409L611.47 511.105C611.471 513.172 611.064 515.22 610.272 517.13C609.48 519.04 608.319 520.776 606.855 522.238C605.392 523.7 603.654 524.86 601.741 525.65C599.829 526.441 597.779 526.848 595.709 526.848H459.663C455.483 526.848 451.474 525.189 448.518 522.237C445.562 519.284 443.902 515.28 443.902 511.105L443.919 414.583H435.427L435.41 513.893C435.41 519.579 437.671 525.032 441.696 529.052C445.72 533.073 451.179 535.333 456.872 535.334H598.495C604.188 535.333 609.648 533.073 613.673 529.053ZM435.449 287.109H443.941L443.987 24.2198C443.988 20.0454 445.649 16.0424 448.605 13.0911C451.561 10.1398 455.569 8.48189 459.748 8.48189H476.149V16.9401C476.149 19.188 477.043 21.344 478.633 22.9344C480.224 24.5248 482.381 25.4195 484.632 25.422H570.802C573.054 25.422 575.214 24.5284 576.807 22.9377C578.399 21.3471 579.294 19.1896 579.294 16.9401V8.48189H595.728C597.798 8.48064 599.849 8.88697 601.762 9.67761C603.675 10.4683 605.413 11.6277 606.877 13.0897C608.341 14.5518 609.503 16.2877 610.295 18.1982C611.087 20.1088 611.494 22.1566 611.494 24.2245V44.2175H620V21.4367C620 18.6212 619.445 15.8332 618.366 13.2321C617.287 10.631 615.706 8.26762 613.712 6.27698C611.719 4.28634 609.352 2.70741 606.748 1.63039C604.143 0.553378 601.352 -0.00061786 598.533 3.80009e-06H573.754C572.971 3.80009e-06 572.22 0.31067 571.667 0.863674C571.113 1.41668 570.802 2.16671 570.802 2.94878V13.9913C570.801 14.7738 570.489 15.5239 569.934 16.0767C569.38 16.6296 568.628 16.9401 567.845 16.9401H487.579C487.191 16.9407 486.807 16.8649 486.448 16.717C486.089 16.5691 485.763 16.352 485.489 16.0781C485.214 15.8042 484.996 15.4789 484.847 15.1209C484.699 14.7628 484.622 14.379 484.622 13.9913V2.94878C484.622 2.56114 484.546 2.17731 484.397 1.81924C484.248 1.46117 484.03 1.13588 483.756 0.861998C483.481 0.588117 483.155 0.370997 482.796 0.223086C482.438 0.0751742 482.053 -0.000618412 481.665 3.80009e-06H456.957C454.139 3.80009e-06 451.348 0.554457 448.744 1.63175C446.14 2.70904 443.774 4.28808 441.781 6.27866C439.788 8.26923 438.207 10.6324 437.129 13.2332C436.05 15.834 435.495 18.6215 435.495 21.4367L435.449 287.109ZM611.47 103.435H619.962L619.877 485.39H611.385L611.47 103.435Z" fill="#747C2F"/>
<path fill-rule="evenodd" clip-rule="evenodd" d="M369.357 525.742C373.381 521.722 375.643 516.269 375.644 510.584L375.587 490.572H324.555V499.054H367.095L367.152 507.801C367.153 509.868 366.746 511.916 365.954 513.826C365.162 515.736 364.001 517.472 362.537 518.934C361.074 520.396 359.336 521.555 357.423 522.346C355.511 523.137 353.461 523.544 351.391 523.543H24.2579C20.0773 523.543 16.0679 521.885 13.1113 518.933C10.1548 515.981 8.49317 511.976 8.49191 507.801V24.2245C8.49317 20.0489 10.1548 16.0447 13.1113 13.0925C16.0679 10.1403 20.0773 8.48191 24.2579 8.48191H136.245V16.9449C136.246 19.194 137.141 21.3507 138.734 22.941C140.326 24.5314 142.485 25.4255 144.737 25.4267H230.907C233.159 25.4267 235.319 24.5331 236.912 22.9424C238.504 21.3518 239.399 19.1944 239.399 16.9449V8.48191H351.334C353.404 8.48129 355.454 8.88804 357.366 9.67896C359.279 10.4699 361.017 11.6294 362.48 13.0914C363.944 14.5534 365.105 16.2891 365.897 18.1994C366.689 20.1096 367.096 22.157 367.095 24.2245V44.2175H375.587V21.4414C375.587 15.7548 373.326 10.3011 369.3 6.28004C365.274 2.259 359.814 0 354.121 0H233.855C233.07 0 232.318 0.311165 231.764 0.865056C231.209 1.41895 230.898 2.17019 230.898 2.95351V13.9913C230.898 14.7738 230.587 15.5243 230.033 16.0781C229.48 16.6318 228.729 16.9436 227.945 16.9449H147.684C146.901 16.9436 146.149 16.632 145.595 16.0784C145.041 15.5247 144.729 14.7742 144.727 13.9913V2.95351C144.728 2.56587 144.652 2.18191 144.504 1.8236C144.356 1.46529 144.139 1.13967 143.864 0.865345C143.59 0.591024 143.265 0.373417 142.906 0.224931C142.548 0.0764448 142.163 0 141.775 0H21.4667C15.7734 0 10.3133 2.259 6.28746 6.28004C2.26167 10.3011 0 15.7548 0 21.4414V510.584C0 516.27 2.26167 521.724 6.28746 525.745C10.3133 529.766 15.7734 532.025 21.4667 532.025H354.182C359.874 532.023 365.332 529.763 369.357 525.742ZM367.072 94.8488H375.564V287.109H367.072V94.8488ZM367.072 414.583V482.076H375.564V414.583H367.072Z" fill="#747C2F"/>
<path d="M291.757 305.743L285.076 317.718L278.395 305.743L271.652 317.718L264.971 305.743H251.609L271.652 341.605L278.395 329.693L285.076 341.605L305.181 305.743H291.757Z" fill="#747C2F"/>
<path d="M321.103 317.718H334.528L323.813 323.706H334.528V317.718H341.209V305.743H307.742V341.605H341.209V329.693H321.103V317.718Z" fill="#747C2F"/>
<path d="M379.041 322.382C380.932 320.617 382.129 318.159 382.129 315.512C382.129 310.092 377.213 305.743 371.226 305.743C365.932 305.743 343.809 305.743 343.809 305.743V341.605C343.809 341.605 366.373 341.605 372.171 341.605C378.663 341.605 383.957 336.878 383.957 331.017C383.957 327.424 382.003 324.273 379.041 322.382ZM357.171 314.063H366.247C367.885 314.063 369.272 315.323 369.272 316.773C369.272 318.285 367.885 319.546 366.247 319.546H357.171V314.063ZM367.507 333.286H357.171V327.865H367.507C369.146 327.865 370.532 329.063 370.532 330.576C370.532 332.088 369.146 333.286 367.507 333.286Z" fill="#747C2F"/>
<path d="M131.475 365.926H107.462V401.788H131.475C140.425 401.788 147.61 393.783 147.61 383.888C147.61 373.93 140.425 365.926 131.475 365.926ZM128.828 389.876H120.824V377.901H128.828C131.853 377.901 134.248 380.548 134.248 383.888C134.248 387.166 131.853 389.876 128.828 389.876Z" fill="#747C2F"/>
<path d="M163.539 377.901H176.963L166.249 383.888H176.963V377.901H183.644V365.926H150.177V401.788H183.644V389.876H163.539V377.901Z" fill="#747C2F"/>
<path d="M186.245 365.926L206.287 401.788L226.392 365.926H213.031L206.287 377.901L199.606 365.926H186.245Z" fill="#747C2F"/>
<path d="M242.321 377.901H255.745L245.031 383.888H255.745V377.901H262.426V365.926H228.959V401.788H262.426V389.876H242.321V377.901Z" fill="#747C2F"/>
<path d="M278.389 389.876V365.926H265.027V401.788H298.494V389.876H278.389Z" fill="#747C2F"/>
<path d="M321.137 365.8C310.044 365.8 301.095 373.867 301.095 383.888C301.095 393.846 310.044 401.914 321.137 401.914C332.292 401.914 341.242 393.846 341.242 383.888C341.242 373.867 332.292 365.8 321.137 365.8ZM321.137 389.876C317.481 389.876 314.456 387.166 314.456 383.888C314.456 380.548 317.481 377.838 321.137 377.838C324.855 377.838 327.881 380.548 327.881 383.888C327.881 387.166 324.855 389.876 321.137 389.876Z" fill="#747C2F"/>
<path d="M367.255 365.926H343.809V401.788H357.171V396.052H367.255C376.457 396.052 383.957 389.309 383.957 380.989C383.957 372.67 376.457 365.926 367.255 365.926ZM357.171 377.838H367.255C369.083 377.838 370.595 379.224 370.595 380.863C370.595 382.502 369.083 383.888 367.255 383.888H357.171V377.838Z" fill="#747C2F"/>
<path d="M437.322 323.706V317.655H457.428V305.743H423.961V341.605H437.322V335.681H450.747V323.706H437.322Z" fill="#E5E6A2"/>
<path d="M480.071 305.617C468.978 305.617 460.029 313.685 460.029 323.706C460.029 333.664 468.978 341.731 480.071 341.731C491.226 341.731 500.176 333.664 500.176 323.706C500.176 313.685 491.226 305.617 480.071 305.617ZM480.071 329.693C476.415 329.693 473.39 326.983 473.39 323.706C473.39 320.366 476.415 317.655 480.071 317.655C483.789 317.655 486.815 320.366 486.815 323.706C486.815 326.983 483.789 329.693 480.071 329.693Z" fill="#E5E6A2"/>
<path d="M542.891 320.807C542.891 312.487 535.391 305.743 526.189 305.743H502.743V341.668H516.105V335.87H526.252L529.529 341.668H542.891L537.471 331.899C540.811 329.126 542.891 325.219 542.891 320.807ZM516.105 317.655H526.189C528.017 317.655 529.529 319.042 529.529 320.681C529.529 322.319 528.017 323.706 526.189 323.706H516.105V317.655Z" fill="#E5E6A2"/>
<path d="M464.108 365.926H450.747L444.003 377.901L437.322 365.926H423.961L437.322 389.876V401.788H450.747V389.876L464.108 365.926Z" fill="#E5E6A2"/>
<path d="M482.287 365.8C471.194 365.8 462.244 373.867 462.244 383.889C462.244 393.847 471.194 401.914 482.287 401.914C493.442 401.914 502.392 393.847 502.392 383.889C502.392 373.867 493.442 365.8 482.287 365.8ZM482.287 389.876C478.631 389.876 475.606 387.166 475.606 383.889C475.606 380.548 478.631 377.838 482.287 377.838C486.005 377.838 489.03 380.548 489.03 383.889C489.03 387.166 486.005 389.876 482.287 389.876Z" fill="#E5E6A2"/>
<path d="M531.745 365.926V383.889C531.745 387.166 528.72 389.876 525.001 389.876C521.346 389.876 518.321 387.166 518.321 383.889V365.926H504.959V383.889C504.959 393.847 513.909 401.914 525.001 401.914C536.157 401.914 545.107 393.847 545.107 383.889V365.926H531.745Z" fill="#E5E6A2"/>
</svg>
