<svg display="none">
  <symbol id='telegram' viewBox="0 0 30 25" fill="none" xmlns="http://www.w3.org/2000/svg">
    <path d="M27.9815 0.136808C25.9864 0.870279 1.37115 10.3233 1.00735 10.4993C-0.195548 11.0685 -0.336374 11.8195 0.667015 12.33C0.766767 12.3828 2.42735 12.9109 4.36958 13.5153L7.89611 14.6126L15.8997 9.60152C20.3064 6.84954 23.9973 4.56111 24.1029 4.5259C24.3787 4.43201 24.6134 4.43788 24.719 4.54937C24.7953 4.62565 24.8012 4.66086 24.7366 4.77234C24.7014 4.84863 21.7734 7.50673 18.241 10.6753C14.7086 13.8498 11.804 16.4668 11.7923 16.4961C11.7806 16.5255 11.6632 18.1098 11.5283 20.0168L11.2818 23.4788L11.5517 23.4436C11.6984 23.426 11.9273 23.3497 12.0622 23.2734C12.2031 23.203 13.1184 22.3698 14.1101 21.4251C15.0959 20.4804 15.9408 19.6882 15.9819 19.6765C16.023 19.6589 17.5955 20.7738 19.4791 22.1527C21.3568 23.5316 23.0408 24.7228 23.2227 24.8049C23.698 25.0279 24.2261 25.0455 24.5723 24.8636C24.8833 24.6993 25.1826 24.2885 25.3117 23.8602C25.3586 23.6959 26.4383 18.7259 27.6998 12.8171C29.8064 2.98267 30 2.0321 30 1.5216C30 1.04044 29.9824 0.923089 29.8533 0.670775C29.7653 0.488874 29.6069 0.306973 29.4543 0.201353C29.1081 -0.0392252 28.5331 -0.068564 27.9815 0.136808Z" fill="intherit"/>
  </symbol>

  <symbol id="vk" viewBox="0 0 30 30" fill="none" xmlns="http://www.w3.org/2000/svg">
    <path opacity="0.995" fill-rule="intherit" clip-rule="evenodd" d="M3.39844 0C11.1328 0 18.8672 0 26.6016 0C28.4571 0.410156 29.5898 1.54297 30 3.39844C30 11.1328 30 18.8672 30 26.6016C29.5898 28.4571 28.4571 29.5898 26.6016 30C18.8672 30 11.1328 30 3.39844 30C1.54297 29.5898 0.410156 28.4571 0 26.6016C0 18.8672 0 11.1328 0 3.39844C0.410156 1.54297 1.54297 0.410156 3.39844 0ZM12.6562 9.66797C13.6525 9.65818 14.6486 9.66797 15.6445 9.69727C16.069 9.69346 16.3718 9.87896 16.5527 10.2539C16.6092 10.5636 16.6385 10.8762 16.6406 11.1914C16.582 12.1675 16.5722 13.1441 16.6113 14.1211C16.7056 14.8331 17.0181 14.9503 17.5488 14.4727C18.5885 13.2538 19.3892 11.8867 19.9512 10.3711C20.0196 10.3027 20.0879 10.2344 20.1562 10.166C20.7976 10.1004 21.4421 10.0711 22.0898 10.0781C22.6563 10.0879 23.2226 10.0976 23.7891 10.1074C24.2069 10.1534 24.3729 10.378 24.2871 10.7812C24.2045 11.0876 24.0873 11.3805 23.9355 11.6602C23.138 12.8288 22.3177 13.9811 21.4746 15.1172C21.2601 15.4242 21.2406 15.7366 21.416 16.0547C22.4841 17.0048 23.4216 18.0595 24.2285 19.2188C24.4795 19.7649 24.3135 20.1262 23.7305 20.3027C22.6953 20.3418 21.6602 20.3418 20.625 20.3027C20.1943 20.2326 19.8231 20.047 19.5117 19.7461C18.9932 19.2178 18.4854 18.6807 17.9883 18.1348C17.8128 17.9738 17.6077 17.8663 17.373 17.8125C17.2039 17.8361 17.0671 17.9142 16.9629 18.0469C16.7636 18.6173 16.6269 19.2033 16.5527 19.8047C16.4783 20.0549 16.3123 20.2014 16.0547 20.2441C13.8949 20.4942 12.0199 19.8887 10.4297 18.4277C9.35174 17.2774 8.42402 16.0176 7.64648 14.6484C6.95971 13.4311 6.33469 12.1811 5.77148 10.8984C5.62605 10.6073 5.65535 10.3436 5.85938 10.1074C6.89455 10.0683 7.92967 10.0683 8.96484 10.1074C9.20959 10.1665 9.41467 10.2935 9.58008 10.4883C10.1749 12.0013 10.9854 13.3783 12.0117 14.6191C12.1395 14.727 12.286 14.7953 12.4512 14.8242C12.5772 14.8158 12.6749 14.7572 12.7441 14.6484C12.8304 14.401 12.889 14.1471 12.9199 13.8867C12.959 13.0859 12.959 12.2852 12.9199 11.4844C12.8814 10.8403 12.5396 10.479 11.8945 10.4004C11.8639 10.3675 11.8444 10.3284 11.8359 10.2832C12.0189 9.95326 12.2924 9.74818 12.6562 9.66797Z" fill="intherit"/>
  </symbol>

  <symbol id="whatsapp" viewBox="0 0 30 31" fill="none" xmlns="http://www.w3.org/2000/svg">
    <path d="M13.9162 0.966878C11.6487 1.18423 9.9393 1.67767 8.08302 2.63518C5.25162 4.10375 2.96652 6.43584 1.55081 9.30249C1.0045 10.401 0.751909 11.0765 0.464069 12.1574C0.111612 13.5202 0.00587429 14.3485 0 15.8523C0 16.6042 0.0293715 17.4149 0.0704915 17.7321C0.393577 20.1406 1.14549 22.2142 2.40846 24.1527L2.83141 24.8047L1.8974 27.5598C1.38046 29.0812 0.969258 30.3266 0.981006 30.3383C0.992755 30.3501 2.27335 29.9506 3.83591 29.4513C5.39847 28.952 6.69669 28.5408 6.72606 28.5408C6.74956 28.5408 6.99041 28.6759 7.26062 28.8463C7.53084 29.0107 8.09477 29.3162 8.51185 29.5159C12.3125 31.3311 16.6536 31.4897 20.5424 29.9448C24.9481 28.2001 28.3317 24.3759 29.5418 19.7822C29.9119 18.3724 30 17.6029 30 15.9698C30 14.3368 29.9119 13.5672 29.5418 12.1574C28.1202 6.77068 23.8026 2.58231 18.3513 1.30759C17.4349 1.09611 16.4833 0.9845 15.326 0.966878C14.6799 0.955129 14.0454 0.955129 13.9162 0.966878ZM10.3329 7.93378C10.4327 7.98665 10.5678 8.12764 10.6383 8.25687C10.8087 8.56821 12.242 12.0047 12.2831 12.2161C12.336 12.4805 12.0717 12.9328 11.4901 13.5907C10.8792 14.278 10.75 14.4954 10.8028 14.7421C10.9027 15.1885 12.2596 16.9919 13.0997 17.785C14.3979 19.0127 16.3599 20.1817 17.2352 20.2463C17.6875 20.2757 17.8461 20.1523 18.5393 19.2359C18.8506 18.8188 19.1796 18.4018 19.2794 18.3078C19.5026 18.0787 19.8375 18.0317 20.2193 18.1727C20.701 18.3548 23.6558 19.794 23.8672 19.9526L24.067 20.0994L24.0317 20.7221C23.9495 22.3199 23.3855 23.1482 21.9052 23.8707C20.4954 24.558 19.391 24.5404 17.2352 23.7944C14.3333 22.7899 12.8001 21.8324 10.7147 19.7352C9.66908 18.6896 8.92892 17.8026 8.08302 16.5866C6.68494 14.5894 6.15038 13.0444 6.30899 11.476C6.43822 10.2189 6.87879 9.29075 7.76581 8.40373C8.19463 7.9749 8.75269 7.79868 9.59859 7.82805C9.95692 7.8398 10.2213 7.87504 10.3329 7.93378Z" fill="intherit"/>
  </symbol>
</svg>