<svg width="30" height="25" viewBox="0 0 30 25" fill="none" xmlns="http://www.w3.org/2000/svg">
<path d="M27.9815 0.136808C25.9864 0.870279 1.37115 10.3233 1.00735 10.4993C-0.195548 11.0685 -0.336374 11.8195 0.667015 12.33C0.766767 12.3828 2.42735 12.9109 4.36958 13.5153L7.89611 14.6126L15.8997 9.60152C20.3064 6.84954 23.9973 4.56111 24.1029 4.5259C24.3787 4.43201 24.6134 4.43788 24.719 4.54937C24.7953 4.62565 24.8012 4.66086 24.7366 4.77234C24.7014 4.84863 21.7734 7.50673 18.241 10.6753C14.7086 13.8498 11.804 16.4668 11.7923 16.4961C11.7806 16.5255 11.6632 18.1098 11.5283 20.0168L11.2818 23.4788L11.5517 23.4436C11.6984 23.426 11.9273 23.3497 12.0622 23.2734C12.2031 23.203 13.1184 22.3698 14.1101 21.4251C15.0959 20.4804 15.9408 19.6882 15.9819 19.6765C16.023 19.6589 17.5955 20.7738 19.4791 22.1527C21.3568 23.5316 23.0408 24.7228 23.2227 24.8049C23.698 25.0279 24.2261 25.0455 24.5723 24.8636C24.8833 24.6993 25.1826 24.2885 25.3117 23.8602C25.3586 23.6959 26.4383 18.7259 27.6998 12.8171C29.8064 2.98267 30 2.0321 30 1.5216C30 1.04044 29.9824 0.923089 29.8533 0.670775C29.7653 0.488874 29.6069 0.306973 29.4543 0.201353C29.1081 -0.0392252 28.5331 -0.068564 27.9815 0.136808Z" fill="#EEEEEE"/>
</svg>
