<svg width="30" height="31" viewBox="0 0 30 31" fill="none" xmlns="http://www.w3.org/2000/svg">
<path d="M13.9162 0.966878C11.6487 1.18423 9.9393 1.67767 8.08302 2.63518C5.25162 4.10375 2.96652 6.43584 1.55081 9.30249C1.0045 10.401 0.751909 11.0765 0.464069 12.1574C0.111612 13.5202 0.00587429 14.3485 0 15.8523C0 16.6042 0.0293715 17.4149 0.0704915 17.7321C0.393577 20.1406 1.14549 22.2142 2.40846 24.1527L2.83141 24.8047L1.8974 27.5598C1.38046 29.0812 0.969258 30.3266 0.981006 30.3383C0.992755 30.3501 2.27335 29.9506 3.83591 29.4513C5.39847 28.952 6.69669 28.5408 6.72606 28.5408C6.74956 28.5408 6.99041 28.6759 7.26062 28.8463C7.53084 29.0107 8.09477 29.3162 8.51185 29.5159C12.3125 31.3311 16.6536 31.4897 20.5424 29.9448C24.9481 28.2001 28.3317 24.3759 29.5418 19.7822C29.9119 18.3724 30 17.6029 30 15.9698C30 14.3368 29.9119 13.5672 29.5418 12.1574C28.1202 6.77068 23.8026 2.58231 18.3513 1.30759C17.4349 1.09611 16.4833 0.9845 15.326 0.966878C14.6799 0.955129 14.0454 0.955129 13.9162 0.966878ZM10.3329 7.93378C10.4327 7.98665 10.5678 8.12764 10.6383 8.25687C10.8087 8.56821 12.242 12.0047 12.2831 12.2161C12.336 12.4805 12.0717 12.9328 11.4901 13.5907C10.8792 14.278 10.75 14.4954 10.8028 14.7421C10.9027 15.1885 12.2596 16.9919 13.0997 17.785C14.3979 19.0127 16.3599 20.1817 17.2352 20.2463C17.6875 20.2757 17.8461 20.1523 18.5393 19.2359C18.8506 18.8188 19.1796 18.4018 19.2794 18.3078C19.5026 18.0787 19.8375 18.0317 20.2193 18.1727C20.701 18.3548 23.6558 19.794 23.8672 19.9526L24.067 20.0994L24.0317 20.7221C23.9495 22.3199 23.3855 23.1482 21.9052 23.8707C20.4954 24.558 19.391 24.5404 17.2352 23.7944C14.3333 22.7899 12.8001 21.8324 10.7147 19.7352C9.66908 18.6896 8.92892 17.8026 8.08302 16.5866C6.68494 14.5894 6.15038 13.0444 6.30899 11.476C6.43822 10.2189 6.87879 9.29075 7.76581 8.40373C8.19463 7.9749 8.75269 7.79868 9.59859 7.82805C9.95692 7.8398 10.2213 7.87504 10.3329 7.93378Z" fill="#EEEEEE"/>
</svg>
